<?xml version="1.0" encoding="iso-8859-1"?>
<!-- Generator: Adobe Illustrator 16.0.0, SVG Export Plug-In . SVG Version: 6.00 Build 0)  -->
<!DOCTYPE svg PUBLIC "-//W3C//DTD SVG 1.1//EN" "http://www.w3.org/Graphics/SVG/1.1/DTD/svg11.dtd">
<svg version="1.1" id="Layer_1" xmlns="http://www.w3.org/2000/svg" xmlns:xlink="http://www.w3.org/1999/xlink" x="0px" y="0px"
	 width="126.1px" height="126.097px" viewBox="0 0 126.1 126.097" style="enable-background:new 0 0 126.1 126.097;"
	 xml:space="preserve">
<g>
	<path style="fill:#F15A22;" d="M-630.433,51.225h-8.262c-0.12-1.916-0.621-3.651-1.505-5.208c-0.884-1.556-2.052-2.881-3.503-3.974
		c-1.45-1.092-3.143-1.93-5.073-2.514s-4.003-0.875-6.218-0.875c-3.054,0-5.815,0.532-8.285,1.594
		c-2.47,1.064-4.573,2.635-6.308,4.714c-1.737,2.081-3.077,4.641-4.02,7.679c-0.943,3.039-1.414,6.533-1.414,10.484
		s0.464,7.453,1.392,10.507c0.928,3.053,2.26,5.621,3.997,7.7c1.735,2.081,3.816,3.667,6.241,4.759
		c2.425,1.093,5.147,1.639,8.172,1.639c2.363,0,4.526-0.292,6.487-0.875c1.961-0.583,3.651-1.451,5.074-2.604
		c1.422-1.151,2.56-2.559,3.412-4.22s1.37-3.57,1.55-5.725h8.262c-0.3,3.233-1.115,6.106-2.448,8.621
		c-1.332,2.514-3.074,4.64-5.229,6.376c-2.155,1.737-4.67,3.061-7.544,3.974c-2.873,0.913-6.002,1.37-9.384,1.37
		c-4.342,0-8.262-0.741-11.764-2.223c-3.503-1.482-6.482-3.592-8.937-6.332c-2.454-2.738-4.34-6.046-5.657-9.923
		c-1.317-3.876-1.976-8.224-1.976-13.043c0-4.789,0.665-9.122,1.997-12.999c1.333-3.876,3.233-7.184,5.703-9.923
		c2.469-2.739,5.447-4.849,8.935-6.331c3.488-1.482,7.388-2.223,11.698-2.223c3.202,0,6.232,0.464,9.092,1.392
		c2.859,0.929,5.388,2.245,7.588,3.951c2.2,1.707,3.996,3.765,5.389,6.174C-631.578,45.575-630.732,48.261-630.433,51.225z"/>
	<path style="fill:#766E65;" d="M-612.517,93.566h-7.769V32.815h7.769V93.566z"/>
	<path style="fill:#766E65;" d="M-582.344,94.644c-3.204,0-6.122-0.517-8.756-1.549c-2.635-1.033-4.894-2.537-6.779-4.512
		c-1.886-1.976-3.346-4.393-4.379-7.252c-1.033-2.858-1.548-6.113-1.548-9.766c0-3.592,0.5-6.81,1.503-9.654
		c1.002-2.843,2.417-5.253,4.244-7.229c1.824-1.975,4.003-3.494,6.532-4.557c2.528-1.062,5.321-1.594,8.375-1.594
		c3.172,0,6.03,0.524,8.576,1.571c2.543,1.048,4.714,2.56,6.511,4.535c1.796,1.976,3.171,4.386,4.131,7.229
		c0.957,2.844,1.437,6.077,1.437,9.699v1.886h-33.137c0.18,2.544,0.635,4.759,1.368,6.645c0.732,1.886,1.685,3.443,2.853,4.669
		c1.167,1.228,2.521,2.148,4.063,2.762s3.211,0.92,5.007,0.92c1.286,0,2.574-0.171,3.862-0.516c1.285-0.344,2.445-0.854,3.479-1.527
		c1.032-0.674,1.871-1.512,2.515-2.515c0.643-1.002,0.98-2.147,1.011-3.435h8.217c-0.33,2.276-1.042,4.296-2.134,6.062
		c-1.092,1.766-2.477,3.248-4.152,4.445c-1.677,1.198-3.608,2.11-5.792,2.739C-577.525,94.33-579.859,94.644-582.344,94.644z
		 M-570.759,67.299c-0.331-2.095-0.854-3.929-1.572-5.5c-0.718-1.572-1.616-2.881-2.693-3.929c-1.078-1.047-2.307-1.841-3.682-2.379
		c-1.378-0.54-2.859-0.809-4.445-0.809c-1.588,0-3.063,0.255-4.424,0.764c-1.361,0.509-2.581,1.288-3.658,2.335
		c-1.078,1.048-1.992,2.365-2.739,3.952c-0.749,1.586-1.273,3.443-1.572,5.567H-570.759z"/>
	<path style="fill:#766E65;" d="M-525.857,89.121c-4.103,3.683-9.25,5.523-15.446,5.523c-2.127,0-4.095-0.307-5.905-0.92
		s-3.39-1.474-4.736-2.582c-1.347-1.107-2.403-2.439-3.166-3.996c-0.764-1.557-1.145-3.292-1.145-5.208
		c0-10.297,8.846-15.446,26.536-15.446h3.862c0-1.886-0.062-3.562-0.181-5.029c-0.12-1.466-0.51-2.701-1.167-3.704
		c-0.659-1.002-1.706-1.766-3.143-2.29c-1.438-0.524-3.458-0.786-6.063-0.786c-6.944,0-10.537,2.5-10.775,7.499h-7.902
		c0.567-9.099,6.942-13.649,19.127-13.649c2.754,0,5.237,0.24,7.454,0.718c2.214,0.48,4.093,1.348,5.634,2.605
		c1.541,1.257,2.732,2.963,3.57,5.118c0.837,2.155,1.258,4.895,1.258,8.217v28.377h-7.813V89.121z M-525.857,82.026v-9.788h-5.434
		c-11.346,0-17.018,3.083-17.018,9.25c0,2.245,0.845,3.967,2.536,5.164c1.692,1.198,3.93,1.796,6.714,1.796
		c1.285,0,2.566-0.149,3.838-0.449c1.271-0.299,2.484-0.725,3.637-1.28c1.153-0.553,2.215-1.227,3.188-2.021
		C-527.422,83.906-526.576,83.015-525.857,82.026z"/>
	<path style="fill:#766E65;" d="M-498.737,55.176c1.945-2.245,4.017-3.914,6.218-5.006c2.199-1.093,4.497-1.639,6.893-1.639
		c9.969,0,14.952,5.419,14.952,16.254v28.782h-7.902V65.189c0-3.622-0.638-6.219-1.909-7.791c-1.271-1.572-3.345-2.357-6.218-2.357
		c-3.981,0-7.993,2.335-12.033,7.004v31.521h-7.769V49.608h7.769V55.176z"/>
	<path style="fill:#F15A22;" d="M-408.127,51.225h-8.262c-0.121-1.916-0.622-3.651-1.505-5.208
		c-0.884-1.556-2.052-2.881-3.503-3.974c-1.451-1.092-3.143-1.93-5.073-2.514c-1.932-0.584-4.004-0.875-6.219-0.875
		c-3.054,0-5.814,0.532-8.285,1.594c-2.47,1.064-4.572,2.635-6.307,4.714c-1.737,2.081-3.077,4.641-4.021,7.679
		c-0.942,3.039-1.413,6.533-1.413,10.484s0.464,7.453,1.392,10.507c0.927,3.053,2.26,5.621,3.996,7.7
		c1.734,2.081,3.817,3.667,6.241,4.759c2.425,1.093,5.147,1.639,8.172,1.639c2.364,0,4.527-0.292,6.487-0.875
		c1.962-0.583,3.652-1.451,5.074-2.604c1.422-1.151,2.56-2.559,3.412-4.22c0.854-1.662,1.37-3.57,1.551-5.725h8.262
		c-0.3,3.233-1.115,6.106-2.448,8.621c-1.332,2.514-3.074,4.64-5.229,6.376c-2.156,1.737-4.67,3.061-7.544,3.974
		c-2.873,0.913-6.002,1.37-9.384,1.37c-4.342,0-8.262-0.741-11.765-2.223c-3.503-1.482-6.482-3.592-8.936-6.332
		c-2.455-2.738-4.342-6.046-5.658-9.923c-1.317-3.876-1.975-8.224-1.975-13.043c0-4.789,0.664-9.122,1.997-12.999
		c1.332-3.876,3.232-7.184,5.702-9.923c2.47-2.739,5.447-4.849,8.936-6.331c3.488-1.482,7.387-2.223,11.698-2.223
		c3.201,0,6.231,0.464,9.092,1.392c2.858,0.929,5.388,2.245,7.588,3.951c2.199,1.707,3.996,3.765,5.388,6.174
		C-409.273,45.575-408.427,48.261-408.127,51.225z"/>
	<path style="fill:#766E65;" d="M-380.154,48.531c3.172,0,6.031,0.524,8.576,1.571c2.544,1.048,4.715,2.56,6.511,4.535
		s3.172,4.386,4.13,7.229c0.958,2.844,1.438,6.077,1.438,9.699c0,3.652-0.493,6.908-1.481,9.766
		c-0.988,2.859-2.38,5.276-4.175,7.252c-1.797,1.976-3.969,3.479-6.511,4.512c-2.546,1.033-5.375,1.549-8.487,1.549
		c-3.083,0-5.889-0.509-8.42-1.527c-2.529-1.017-4.698-2.515-6.508-4.49c-1.813-1.976-3.219-4.393-4.221-7.252
		c-1.005-2.858-1.506-6.129-1.506-9.811c0-3.622,0.494-6.862,1.482-9.721c0.986-2.858,2.38-5.276,4.175-7.251
		c1.797-1.976,3.967-3.48,6.511-4.513C-386.098,49.047-383.269,48.531-380.154,48.531z M-380.154,88.448
		c1.855,0,3.554-0.351,5.098-1.056c1.541-0.703,2.857-1.765,3.95-3.188c1.093-1.421,1.946-3.188,2.559-5.298
		c0.614-2.11,0.921-4.558,0.921-7.341s-0.307-5.231-0.921-7.342c-0.612-2.11-1.466-3.876-2.559-5.298s-2.409-2.484-3.95-3.188
		c-1.544-0.703-3.242-1.056-5.098-1.056c-1.857,0-3.554,0.353-5.097,1.056c-1.541,0.704-2.866,1.766-3.974,3.188
		s-1.968,3.188-2.582,5.298c-0.613,2.111-0.92,4.558-0.92,7.342s0.307,5.231,0.92,7.341c0.614,2.11,1.475,3.876,2.582,5.298
		c1.107,1.423,2.433,2.485,3.974,3.188C-383.708,88.097-382.012,88.448-380.154,88.448z"/>
	<path style="fill:#766E65;" d="M-291.295,93.566h-7.902V65.189c0-1.855-0.128-3.427-0.383-4.714
		c-0.253-1.287-0.65-2.335-1.189-3.143c-0.538-0.808-1.235-1.393-2.086-1.751c-0.855-0.359-1.896-0.539-3.122-0.539
		c-3.833,0-7.589,2.335-11.271,7.004v31.521h-7.678V65.189c0-1.855-0.128-3.427-0.382-4.714s-0.658-2.335-1.214-3.143
		c-0.553-0.808-1.264-1.393-2.131-1.751c-0.87-0.359-1.917-0.539-3.144-0.539c-3.771,0-7.498,2.335-11.181,7.004v31.521h-7.769
		V49.608h7.769v5.567c3.771-4.43,7.902-6.645,12.394-6.645c6.404,0,10.507,2.664,12.302,7.993c1.497-1.766,2.853-3.173,4.063-4.221
		c1.214-1.047,2.342-1.855,3.391-2.425c1.047-0.568,2.049-0.935,3.009-1.1c0.958-0.164,1.944-0.247,2.964-0.247
		c9.039,0,13.56,5.419,13.56,16.254V93.566z"/>
	<path style="fill:#766E65;" d="M-220.53,93.566h-7.902V65.189c0-1.855-0.129-3.427-0.384-4.714
		c-0.253-1.287-0.649-2.335-1.188-3.143s-1.236-1.393-2.088-1.751c-0.854-0.359-1.894-0.539-3.121-0.539
		c-3.832,0-7.588,2.335-11.27,7.004v31.521h-7.678V65.189c0-1.855-0.129-3.427-0.382-4.714c-0.255-1.287-0.658-2.335-1.214-3.143
		c-0.553-0.808-1.265-1.393-2.132-1.751c-0.869-0.359-1.916-0.539-3.143-0.539c-3.771,0-7.499,2.335-11.181,7.004v31.521h-7.768
		V49.608h7.768v5.567c3.771-4.43,7.902-6.645,12.393-6.645c6.404,0,10.507,2.664,12.303,7.993c1.496-1.766,2.852-3.173,4.063-4.221
		c1.214-1.047,2.342-1.855,3.391-2.425c1.047-0.568,2.049-0.935,3.008-1.1c0.957-0.164,1.945-0.247,2.964-0.247
		c9.04,0,13.561,5.419,13.561,16.254V93.566z"/>
	<path style="fill:#766E65;" d="M-190.583,94.644c-3.204,0-6.122-0.517-8.755-1.549c-2.635-1.033-4.895-2.537-6.779-4.512
		c-1.887-1.976-3.345-4.393-4.379-7.252c-1.031-2.858-1.549-6.113-1.549-9.766c0-3.592,0.501-6.81,1.506-9.654
		c1.002-2.843,2.416-5.253,4.241-7.229c1.825-1.975,4.004-3.494,6.534-4.557c2.529-1.062,5.32-1.594,8.373-1.594
		c3.172,0,6.032,0.524,8.576,1.571c2.544,1.048,4.716,2.56,6.511,4.535c1.797,1.976,3.172,4.386,4.131,7.229
		c0.957,2.844,1.438,6.077,1.438,9.699v1.886h-33.138c0.181,2.544,0.637,4.759,1.368,6.645c0.735,1.886,1.686,3.443,2.853,4.669
		c1.167,1.228,2.522,2.148,4.063,2.762c1.542,0.614,3.211,0.92,5.006,0.92c1.287,0,2.574-0.171,3.862-0.516
		c1.285-0.344,2.446-0.854,3.48-1.527c1.031-0.674,1.87-1.512,2.515-2.515c0.643-1.002,0.979-2.147,1.009-3.435h8.218
		c-0.331,2.276-1.04,4.296-2.133,6.062c-1.093,1.766-2.479,3.248-4.153,4.445c-1.677,1.198-3.608,2.11-5.792,2.739
		C-185.764,94.33-188.098,94.644-190.583,94.644z M-178.997,67.299c-0.331-2.095-0.854-3.929-1.572-5.5
		c-0.718-1.572-1.616-2.881-2.694-3.929c-1.077-1.047-2.306-1.841-3.682-2.379c-1.377-0.54-2.858-0.809-4.445-0.809
		s-3.06,0.255-4.422,0.764c-1.362,0.509-2.582,1.288-3.659,2.335c-1.079,1.048-1.993,2.365-2.739,3.952
		c-0.749,1.586-1.273,3.443-1.572,5.567H-178.997z"/>
	<path style="fill:#766E65;" d="M-154.213,55.176c1.946-2.245,4.021-3.914,6.219-5.006c2.202-1.093,4.497-1.639,6.894-1.639
		c9.968,0,14.952,5.419,14.952,16.254v28.782h-7.902V65.189c0-3.622-0.637-6.219-1.91-7.791c-1.271-1.572-3.344-2.357-6.219-2.357
		c-3.981,0-7.991,2.335-12.033,7.004v31.521h-7.768V49.608h7.768V55.176z"/>
	<path style="fill:#766E65;" d="M-97.683,93.611c-1.646,0.389-3.518,0.583-5.612,0.583c-2.334,0-4.183-0.284-5.546-0.853
		c-1.361-0.568-2.401-1.414-3.119-2.537c-0.719-1.123-1.185-2.529-1.393-4.221c-0.21-1.691-0.313-3.659-0.313-5.904V55.67h-5.434
		v-6.062h5.434V38.652h7.813v10.956h7.185v6.062h-7.185v25.369c0,1.557,0.098,2.792,0.292,3.704c0.194,0.913,0.478,1.616,0.852,2.11
		c0.376,0.494,0.825,0.816,1.348,0.966c0.524,0.15,1.115,0.225,1.773,0.225c0.688,0,1.362-0.03,2.021-0.09
		c0.657-0.059,1.285-0.134,1.885-0.225V93.611z"/>
	<path style="fill:#766E65;" d="M-75.411,94.644c-11.974,0-18.291-4.729-18.948-14.189h7.903c0.028,5.329,3.682,7.993,10.955,7.993
		c1.617,0,3.046-0.171,4.287-0.516c1.243-0.344,2.275-0.831,3.101-1.46c0.822-0.628,1.451-1.369,1.886-2.223
		c0.433-0.853,0.65-1.788,0.65-2.806c0-1.047-0.166-1.893-0.494-2.537c-0.33-0.643-0.96-1.212-1.887-1.707
		c-0.928-0.494-2.221-0.972-3.884-1.437c-1.659-0.463-3.824-1.056-6.487-1.773c-2.604-0.659-4.85-1.303-6.735-1.931
		s-3.435-1.406-4.648-2.335c-1.211-0.927-2.108-2.065-2.693-3.412c-0.583-1.347-0.875-3.054-0.875-5.119
		c0-1.795,0.383-3.464,1.144-5.006c0.765-1.541,1.857-2.881,3.279-4.019c1.422-1.137,3.144-2.028,5.162-2.671
		c2.022-0.644,4.289-0.965,6.804-0.965c11.555,0,17.421,4.101,17.602,12.303h-7.723c-0.271-4.101-3.368-6.152-9.296-6.152
		c-1.317,0-2.537,0.128-3.658,0.382c-1.124,0.255-2.096,0.629-2.92,1.123c-0.823,0.493-1.466,1.108-1.929,1.841
		c-0.465,0.733-0.697,1.564-0.697,2.492c0,0.869,0.111,1.58,0.339,2.133c0.222,0.554,0.738,1.063,1.547,1.526
		c0.808,0.465,2.014,0.936,3.613,1.415c1.604,0.479,3.779,1.048,6.534,1.707c2.664,0.628,4.985,1.288,6.96,1.976
		c1.976,0.688,3.606,1.526,4.895,2.514c1.286,0.988,2.244,2.193,2.874,3.615c0.628,1.422,0.942,3.181,0.942,5.275
		c0,1.976-0.411,3.817-1.233,5.522c-0.824,1.707-1.999,3.182-3.526,4.423c-1.526,1.242-3.375,2.223-5.544,2.941
		C-70.284,94.285-72.716,94.644-75.411,94.644z"/>
</g>
<g>
	<path style="fill:#F15A22;" d="M60.039,52.92h-7.019c-0.102-1.627-0.527-3.102-1.278-4.425c-0.751-1.322-1.743-2.448-2.977-3.376
		c-1.231-0.928-2.67-1.64-4.31-2.136c-1.641-0.496-3.401-0.744-5.282-0.744c-2.595,0-4.941,0.452-7.039,1.354
		c-2.099,0.904-3.886,2.239-5.359,4.005c-1.476,1.768-2.614,3.942-3.414,6.523c-0.802,2.582-1.202,5.551-1.202,8.907
		c0,3.357,0.395,6.332,1.183,8.927c0.788,2.594,1.92,4.775,3.396,6.542c1.475,1.768,3.242,3.116,5.303,4.043
		c2.06,0.929,4.373,1.393,6.942,1.393c2.008,0,3.846-0.248,5.512-0.744c1.666-0.496,3.102-1.233,4.311-2.213
		c1.208-0.978,2.175-2.173,2.899-3.585c0.724-1.412,1.164-3.033,1.316-4.864h7.019c-0.254,2.747-0.947,5.188-2.079,7.324
		s-2.612,3.942-4.443,5.417c-1.831,1.476-3.968,2.601-6.409,3.376c-2.44,0.775-5.099,1.164-7.972,1.164
		c-3.689,0-7.02-0.63-9.994-1.888c-2.977-1.259-5.508-3.052-7.593-5.379c-2.085-2.326-3.687-5.136-4.807-8.43
		c-1.119-3.293-1.678-6.986-1.678-11.082c0-4.068,0.564-7.75,1.696-11.043c1.133-3.293,2.747-6.104,4.846-8.431
		c2.097-2.327,4.628-4.12,7.59-5.378c2.964-1.259,6.276-1.888,9.939-1.888c2.72,0,5.295,0.394,7.724,1.182
		c2.43,0.789,4.577,1.908,6.446,3.357c1.869,1.45,3.396,3.198,4.578,5.246S59.785,50.403,60.039,52.92z"/>
	<path style="fill:#F15A22;" d="M111.035,52.92h-7.019c-0.103-1.627-0.527-3.102-1.277-4.425c-0.752-1.322-1.744-2.448-2.978-3.376
		c-1.232-0.928-2.67-1.64-4.309-2.136c-1.642-0.496-3.402-0.744-5.284-0.744c-2.595,0-4.939,0.452-7.038,1.354
		c-2.1,0.904-3.885,2.239-5.358,4.005c-1.477,1.768-2.615,3.942-3.416,6.523c-0.8,2.582-1.2,5.551-1.2,8.907
		c0,3.357,0.394,6.332,1.182,8.927c0.788,2.594,1.92,4.775,3.395,6.542c1.474,1.768,3.244,3.116,5.304,4.043
		c2.059,0.929,4.372,1.393,6.942,1.393c2.008,0,3.847-0.248,5.511-0.744c1.668-0.496,3.103-1.233,4.311-2.213
		c1.208-0.978,2.176-2.173,2.899-3.585c0.725-1.412,1.165-3.033,1.317-4.864h7.019c-0.254,2.747-0.947,5.188-2.079,7.324
		s-2.611,3.942-4.443,5.417c-1.832,1.476-3.968,2.601-6.408,3.376c-2.441,0.775-5.1,1.164-7.974,1.164
		c-3.688,0-7.019-0.63-9.994-1.888c-2.977-1.259-5.507-3.052-7.591-5.379c-2.086-2.326-3.688-5.136-4.808-8.43
		c-1.12-3.293-1.678-6.986-1.678-11.082c0-4.068,0.564-7.75,1.696-11.043c1.132-3.293,2.746-6.104,4.846-8.431
		c2.097-2.327,4.627-4.12,7.591-5.378s6.275-1.888,9.938-1.888c2.72,0,5.295,0.394,7.725,1.182c2.429,0.789,4.578,1.908,6.446,3.357
		c1.868,1.45,3.396,3.198,4.578,5.246C110.062,48.121,110.781,50.403,111.035,52.92z"/>
</g>
</svg>
